<?xml version="1.0" encoding="UTF-8" standalone="no"?>
<svg
   version="1.0"
   width="605.61768pt"
   height="727.2583pt"
   viewBox="0 0 605.61767 727.2583"
   preserveAspectRatio="xMidYMid"
   id="svg1"
   sodipodi:docname="logo.svg"
   inkscape:version="1.3.2 (091e20e, 2023-11-25)"
   inkscape:export-filename="../../../../../../Desktop/logo.png"
   inkscape:export-xdpi="96"
   inkscape:export-ydpi="96"
   xmlns:inkscape="http://www.inkscape.org/namespaces/inkscape"
   xmlns:sodipodi="http://sodipodi.sourceforge.net/DTD/sodipodi-0.dtd"
   xmlns="http://www.w3.org/2000/svg"
   xmlns:svg="http://www.w3.org/2000/svg">
  <defs
     id="defs1" />
  <sodipodi:namedview
     id="namedview1"
     pagecolor="#151722"
     bordercolor="#000000"
     borderopacity="0.25"
     inkscape:showpageshadow="2"
     inkscape:pageopacity="0.0"
     inkscape:pagecheckerboard="0"
     inkscape:deskcolor="#d1d1d1"
     inkscape:document-units="pt"
     inkscape:zoom="1.1925841"
     inkscape:cx="362.2386"
     inkscape:cy="233.10725"
     inkscape:window-width="1728"
     inkscape:window-height="1051"
     inkscape:window-x="0"
     inkscape:window-y="38"
     inkscape:window-maximized="1"
     inkscape:current-layer="g1"
     showgrid="false" />
  <metadata
     id="metadata1">
Created by potrace 1.16, written by Peter Selinger 2001-2019
</metadata>
  <g
     transform="matrix(0.1,0,0,-0.1,-213.20773,871.56315)"
     fill="#000000"
     stroke="none"
     id="g1">
    <path
       id="rect2"
       style="fill:#ffffff;stroke:none;stroke-width:10.2047"
       d="m 14480.312,8566.1301 -102.993,-247.0019 c -57,-136.9999 -181.998,-435.0032 -277.998,-663.003 -96,-227.9997 -215.998,-515.9903 -266.997,-639.9902 -51,-123.9999 -122.013,-295.0098 -158.013,-380.0098 -35,-84.9999 -168.997,-410.9954 -296.997,-724.9951 -276,-676.9993 -556,-1352.0005 -765,-1845 -29,-68.9999 -114.991,-272.9953 -189.99,-454.9951 -76,-180.9998 -187.002,-447.0099 -247.002,-590.0098 -61,-142.9998 -136.003,-322.9903 -168.003,-399.9902 -32,-76.9999 -71.008,-170.0078 -88.008,-208.0078 l -30.996,-67.002 405.996,2.0069 405,3.0029 33.003,79.9951 c 18,44 112,274.0003 210,510 97,236.9998 257.997,633.0052 356.997,880.0049 98,247.9998 260.008,647.9954 358.008,889.9951 98,241.9998 195.998,486.9952 217.998,544.9951 59,154.9999 323.997,817.0101 446.997,1115.0098 59,142.9999 138.005,333.9952 175.005,424.9951 37,90.9999 99.995,244.005 139.995,340.0049 40,95.9999 112.005,272.0001 160.005,390 107,261.9997 119.995,292.999 124.995,288.999 2,-2 52.998,-128.0089 112.998,-279.0088 61,-150.9998 142,-348.9952 180,-439.9951 141,-335.9996 360.009,-861.9952 414.009,-994.9951 22,-54.9999 78.995,-188.0011 124.995,-296.001 l 85.005,-197.0068 71.997,-24.9902 c 39,-14 107.992,-39.0049 151.992,-55.0049 l 82.002,-30 108.003,59.0039 c 59,33 111.005,56.0019 115.005,52.0019 7,-8 98.989,-227.013 223.989,-533.0127 143,-348.9996 132.012,-327.9951 177.012,-334.9951 25,-5 37.991,-11.9951 35.991,-19.9951 -2,-8 -49.992,-115.0079 -106.992,-238.0078 l -104.004,-223.9893 -119.004,-38.0127 c -65,-21.9999 -117.993,-42.9921 -117.993,-46.9921 0,-5 13.996,-38.9962 30.996,-75.9961 36,-77 248.006,-567.0023 381.006,-877.002 49,-114.9999 126.998,-295.005 172.998,-400.0049 45,-103.9999 110.99,-253.9922 144.99,-331.9922 l 62.007,-143.0127 h 398.994 c 219.001,0 399.009,2.0098 399.009,5.0098 0,2 -26.996,66.002 -60.996,142.002 -65,147.9998 -99,227.9983 -213.999,502.998 -40,95.9999 -130.01,309.9904 -200.01,474.9902 -69,164.9999 -148.997,354.0001 -176.997,420 -28,66 -84.998,203.0099 -127.998,305.0098 -105,247.9998 -301.001,721.991 -600,1449.9902 -246.999,600.9994 -367.008,892.0002 -433.008,1050 -36,85 -118.995,286.0051 -184.995,445.0049 -67,159.9999 -165.997,397.9953 -221.997,529.9951 -56,131.9999 -150,357.01 -210,500.0098 -60,142.9999 -121.999,289.9932 -138.999,327.9932 l -30.996,67.0019 h -433.008 z m -690.996,-390 c -14,0 -188.001,-102 -281.001,-165 -306,-204.9998 -602.001,-514.0003 -806.001,-840 -72,-113.9999 -202.994,-382.005 -248.994,-505.0049 -125,-341.9996 -195.996,-713.9905 -195.996,-1029.9902 v -150 h -90 -90 v -80.0098 -79.9951 h 83.994 83.994 l 6.006,-71.997 c 3,-40 8.001,-122.003 11.001,-183.003 8,-145.9998 56.005,-419.9952 100.005,-574.9951 20,-68.9999 39.993,-127.9971 42.993,-131.9971 4,-4 36.001,30.9884 71.001,77.9883 71,95.9999 68.992,85.0119 31.992,222.0117 -26,92.9999 -47.996,242.9924 -60.996,406.9922 -5,72 -12,158.0079 -15,193.0078 l -5.991,61.9922 h 105.996 105 v 79.9951 80.0098 h -101.997 -101.001 l 5.991,168.0029 c 20,555.9995 183.007,1078.9927 467.007,1501.9922 223.999,332.9997 513.005,609.0002 850.005,810 70.999,43 118.997,77.0049 116.997,85.0049 -3,6 -21.001,36.9981 -41.001,67.9981 -20,30.9999 -40.004,56.997 -44.004,56.997 z m 2253.999,0 c -7,0 -86.001,-117.0019 -86.001,-127.0019 0,-4 23.998,-21.002 52.998,-37.002 167,-92.9999 375.997,-247.9933 521.997,-387.9931 364,-345.9997 608.001,-745.0074 746.001,-1217.0069 82,-279.9997 129.009,-571.9885 129.009,-797.9883 V 5486.135 h -99.009 -98.994 l -3.999,-80.0098 -3.003,-79.9951 h 103.008 101.997 v -64.9951 c 0,-168.9998 -54.009,-525.9972 -99.009,-656.9971 l -19.995,-57.0117 66.006,-92.9883 c 36,-50.9999 66.994,-95.0019 68.994,-97.0019 15,-16 94.999,279.9943 123.999,458.9941 19,117.9999 40.005,352.0031 40.005,453.003 v 56.997 h 85.005 84.99 v 79.9951 80.0098 h -82.998 -83.994 l -6.006,183.0029 c -8.001,221.9998 -18.003,304.9954 -63.003,514.9952 -41,188.9998 -110.991,414.9992 -189.99,603.999 -215,521.9995 -627.011,997.9954 -1119.009,1294.9951 -55,33 -113.997,68.0068 -131.997,77.0068 -18,9 -34.002,15.9961 -37.002,15.9961 z m 156.006,-569.0039 -46.011,-62.9883 -46.992,-63.0029 57.993,-48.999 c 86,-72.9999 260.011,-250.0089 331.011,-339.0088 78,-94.9999 169.999,-239.9962 228.999,-360.9961 25,-49.9999 46.988,-92.999 47.988,-93.999 8,-8 145.005,93.9922 145.005,106.9922 0,38.9999 -171.997,319.0128 -281.997,458.0127 -71,89.9999 -215.001,234 -315,315 -37,29.9999 -79.999,62.997 -93.999,71.997 z m -2572.998,-0.9961 c -17,0 -160.001,-121.9981 -255,-217.998 -103,-102.9999 -188.003,-205.004 -273.003,-329.0039 -62,-89.9999 -182.008,-304.003 -178.008,-318.003 2,-4.9999 28.008,-26.9883 58.008,-47.9882 95,-65 82.993,-67.9999 132.993,30 134,264.9997 326.005,510.0011 550.005,701.0009 l 60,49.9952 -43.008,65.9912 c -24,35.9999 -46.987,66.0058 -51.987,66.0058 z m 1290,-1039.9951 c -3,0 -30.004,-87.0079 -59.004,-193.0078 l -52.998,-193.9893 -176.001,-47.0068 c -97,-26 -184.008,-49.998 -193.008,-52.998 -10,-2 -17.988,-7.9971 -17.988,-11.9971 0,-5 270.996,-86.0069 360.996,-107.0068 21,-4 29.002,-14.9971 37.002,-41.9971 49,-184.9998 96.001,-348.0049 101.001,-355.0049 4,-4 27.994,71.0069 53.994,167.0068 26,94.9999 51.001,183.9922 56.001,196.9922 8,21 33.005,30.9991 205.005,78.999 107.999,30 195.996,57 195.996,60 0,3 -84.006,28.005 -186.006,55.0049 -103,28 -192.995,55 -199.995,60 -7,6 -37.006,94.007 -66.006,197.0069 -29,102.9999 -55.989,187.998 -58.989,187.998 z m 1955.361,-310.8838 c -9.625,-0.625 -20.37,-11.6201 -29.37,-33.1201 -10,-24 -22,-34.9941 -45,-38.9941 -22,-5 -30,-12.0118 -30,-27.0118 0,-14.9999 8,-21.997 30,-26.997 23,-4 35,-14.9903 45,-39.9903 17,-40.9999 35.999,-39.0048 48.999,4.9952 6,20.9999 14.997,31.9921 26.997,31.9921 56,0 66,34.0049 15,55.0049 -24,10 -34.994,22.0001 -38.994,45 -4.5,20 -13.007,29.7461 -22.632,29.1211 z m -3948.618,-180.498 c -9.75,1.625 -18.249,-8.1192 -22.749,-29.6192 -5,-24.9999 -14.999,-35.0097 -48.999,-50.0097 -24,-10 -44.004,-21.9971 -44.004,-26.9971 0,-15 23.996,-31.9922 45.996,-31.9922 25,0 39.003,-15.002 48.003,-52.0019 4,-19 13.001,-28.0079 26.001,-28.0079 15,0 21.001,9.005 26.001,40.0049 6,37 9.005,40.0049 40.005,40.0049 24,0 33.994,4.9951 38.994,19.9951 9,28 -1.995,40.0049 -34.995,40.0049 -23,0 -30.004,6.9903 -44.004,39.9902 -9.5,24 -20.499,37.003 -30.249,38.628 z m 2930.083,-748.96 c -56.766,10.0313 -119.575,-22.418 -145.825,-84.668 -15,-35.9999 -24.004,-45 -44.004,-45 -13,0 -47.004,-5.0009 -74.004,-11.0009 -48,-11 -51.997,-10.9922 -176.997,43.0078 -125,52.9999 -128.995,54.997 -169.995,41.9971 -102,-30 -218.002,-108.9982 -277.002,-187.9981 l -33.003,-42.9932 -240,-6.0058 c -216,-4 -250,-6.9961 -345,-30.9961 -120,-31 -265.009,-96.005 -354.009,-160.0049 -253,-181.9998 -427.997,-537.9986 -521.997,-1057.998 -7,-43 -5.999,-43.0088 41.001,-24.0088 20,9 35.01,11.0097 35.01,5.0097 0,-5 -20,-64.0049 -45,-130.0048 -25,-66 -45,-122.9952 -45,-124.9952 0,-3 15.991,-2.0078 35.991,1.9922 25,5 35,3.001 30,-3.999 -23,-37 -205,-696.9922 -195,-706.9922 3,-3 170.997,-4.0029 371.997,-3.0029 l 366.006,3.0029 -56.001,86.9971 -55.005,87.9931 h -105 -105 l 54.009,60 c 158.999,178.9999 269.003,358.0002 303.003,495 8,32 18.99,133.0001 24.99,225 10,181.9999 19.003,242.0031 48.003,318.003 20,51.9999 73.006,131.9961 111.006,165.9961 25,22.9999 25.991,15.0057 5.991,-68.9942 -8,-32.9999 -15,-101.999 -15,-153.999 v -94.9951 l 52.998,88.9892 c 52,88 197.005,249.0108 205.005,226.0108 5,-14 -5.995,-46.0042 -98.994,-299.0039 -44,-115.9999 -78.999,-216.001 -78.999,-221.001 0,-6 11.992,-6 31.992,0 17,5 32.999,7.0059 33.999,6.0059 2,-1 -11.996,-43.003 -30.996,-93.003 -42,-111.9999 -61.002,-181.0049 -52.002,-190.0048 4,-4 25.003,5.0058 48.003,21.0058 l 41.997,26.9971 -7.002,-32.0069 c -3,-17.9999 -8.993,-97.001 -12.993,-176.0009 -7,-155.9999 -3.01,-166.998 39.99,-112.9981 l 24.009,31.0108 7.998,-58.0078 c 10,-80 48,-230.0021 75,-292.002 l 22.002,-52.002 h 288.999 c 158.999,0 288.999,3.0059 288.999,6.0059 0,4 -24.002,44.0001 -52.002,90 l -52.998,82.9981 -107.007,0.996 h -106.992 l -7.002,36.0059 c -4,20 -4.007,76.9981 -2.007,127.9981 6,103.9998 51.008,253.0001 118.008,390 40,81.9999 238.993,385.0009 252.993,386.0009 4,0 7.002,-18.9971 7.002,-41.997 l 0.996,-43.0079 24.009,30 c 13,16 37.002,52.0098 52.002,80.0098 28,50 27.999,50.9954 33.999,289.9951 5,225.9998 6.996,243.9981 30.996,307.9981 27,71.9999 63.004,129.0029 104.004,168.0029 l 24.99,22.9981 -7.998,-44.004 c -22,-121.9998 -5.997,-250.9913 48.003,-395.9912 l 19.995,-52.998 85.005,38.9941 c 47,22 129.007,55.9961 182.007,75.9961 53,20 99.001,38.0049 101.001,40.0049 2,2 -22.013,25.9942 -53.013,53.9941 -74,69 -118.999,158.0089 -123.999,249.0088 l -2.988,65.9912 19.995,-41.0009 c 32,-62 115,-148.9942 180,-188.9942 78,-46.9999 190.992,-75 301.992,-75 48,0 90.004,3.9942 93.003,8.9942 3,4 -14.002,16.001 -37.002,26.0009 l -41.997,18.003 88.008,11.001 c 75,8.9999 91.999,15.0058 108.999,36.0058 11,13 16.001,25.001 11.001,26.001 -4,2 -29.005,4.9941 -55.005,8.9941 -51,7 -52.998,10.002 -37.998,67.002 l 11.001,37.0019 69.99,3.003 71.001,2.9882 -68.994,75 c -82,91 -123.003,143.0128 -123.003,158.0127 0,7 11.005,11.9971 25.005,11.9971 32,0 32.001,12.003 -3.999,63.0029 -28.999,43 -124.003,136.9922 -138.003,136.9922 -4,1 -19.007,10.0059 -32.007,21.0059 -21,17 -21.99,22 -9.99,30 24,15 36.991,9.9931 50.991,-17.0068 18,-38 32.006,-30.9932 36.006,17.0068 5,59.9999 -17.994,88.9892 -68.994,88.9892 -33,0 -47.009,-6 -69.009,-30 -27,-27.9999 -29.999,-28.998 -93.999,-22.998 -51,5 -67.001,10.0088 -71.001,24.0088 -3,10 -19.991,29.9893 -35.991,43.9892 -16,13.25 -34.252,21.3243 -53.174,24.668 z m 3.164,-1180.664 c -2,-1 -48.99,-25.005 -103.989,-55.0049 -55,-30 -140.005,-66.9981 -190.005,-82.9981 l -90,-28.9892 -103.008,-204.0088 c -109,-215.9998 -165.99,-342 -159.99,-360 2,-6 21.001,4.0019 41.001,22.0019 l 37.002,32.0069 v -131.001 c 0,-71.9999 2.987,-131.001 6.987,-131.001 4,0 22.005,13.9922 40.005,31.9922 29,28 32.999,28.9971 33.999,11.9971 0,-10 15.003,-58.9991 33.003,-108.9991 32,-83.9999 35,-87.995 45,-64.9951 12,29 39.004,65.0039 44.004,59.0039 2,-2 22.992,-40.0088 46.992,-84.0088 23,-43.9999 68.009,-118.9922 99.009,-166.9921 l 56.001,-88.0079 h 293.994 292.998 l -18.003,28.0079 c -10,14.9999 -34.997,55 -56.997,90 l -38.994,61.9921 h -103.008 -102.993 l -40.005,78.003 c -55,104.9999 -87.997,218.9972 -101.997,341.997 -12,104.9999 -9.004,161.01 15.996,335.0098 8,55 18.006,170.9923 21.006,256.9922 3,86.9999 3.992,158.002 1.992,157.002 z m 312.876,-499.7461 c -11.875,2.5 -22.865,-5.7501 -26.865,-26.25 -11,-49 -14.014,-52.9981 -34.014,-52.9981 -55,0 -73.998,-45.001 -22.998,-56.001 48,-10 51.008,-12.0029 58.008,-48.0029 5,-29 11,-36.0059 30,-36.0059 19,0 23.994,5.0079 23.994,28.0079 0,34.9999 8,44.997 45,56.997 43,15 45.003,41.9981 3.003,52.9981 -26,6 -36.004,16.0078 -44.004,43.0078 -7.5,22.5 -20.249,35.7471 -32.124,38.2471 z M 14837.324,2541.1252 v -81.9873 -83.0127 h -52.002 c -124,0 -373.004,51.0089 -558.003,114.0088 -57,20 -104.996,35.9912 -105.996,35.9912 0,0 -22.007,-30.9902 -47.007,-69.9902 l -46.992,-70.0049 27.993,-14.0039 c 15,-7 90.003,-33.9893 168.003,-58.9892 157.999,-52 366.995,-94.0079 514.995,-103.0078 l 99.009,-7.002 v -73.9893 -73.0078 h 75 75 v 74.0039 72.9932 l 65.991,2.0068 c 134,3 390.009,47.9981 549.009,97.9981 94.999,29 195,71.9941 195,83.9941 0,19 -84.014,139 -94.014,135 -6,-3 -53.996,-18.9912 -105.996,-35.9912 -252,-83.9999 -602.991,-141.0048 -605.991,-100.0049 -1,8 -2.007,45.002 -2.007,82.002 l -1.992,66.0058 -75,3.9991 z" />
    <path
       id="rect2-0"
       style="fill:#ffffff;stroke:none;stroke-width:10.2047"
       d="m 21229.995,9212.8532 -102.993,-247.0019 c -57,-136.9999 -181.998,-435.0032 -277.998,-663.003 -96,-227.9997 -215.998,-515.9903 -266.997,-639.9902 -51,-123.9999 -122.013,-295.0098 -158.013,-380.0098 -35,-84.9999 -168.997,-410.9954 -296.997,-724.9951 -276,-676.9993 -556,-1352.0005 -765,-1845 -29,-68.9999 -114.991,-272.9953 -189.99,-454.9951 -76,-180.9998 -187.002,-447.0099 -247.002,-590.0098 -61,-142.9998 -136.003,-322.9903 -168.003,-399.9902 -32,-76.9999 -71.008,-170.0078 -88.008,-208.0078 l -30.996,-67.002 405.996,2.0069 405,3.0029 33.003,79.9951 c 18,44 112,274.0003 210,510 97,236.9998 257.997,633.0052 356.997,880.0049 98,247.9998 260.008,647.9954 358.008,889.9951 98,241.9998 195.998,486.9952 217.998,544.9951 59,154.9999 323.997,817.0101 446.997,1115.0098 59,142.9999 138.005,333.9952 175.005,424.9951 37,90.9999 99.995,244.005 139.995,340.0049 40,95.9999 112.005,272.0001 160.005,390 107,261.9997 119.995,292.999 124.995,288.999 2,-2 52.998,-128.0089 112.998,-279.0088 61,-150.9998 142,-348.9952 180,-439.9951 141,-335.9996 360.009,-861.9952 414.009,-994.9951 22,-54.9999 78.995,-188.0011 124.995,-296.001 l 85.005,-197.0068 71.997,-24.9902 c 39,-14 107.992,-39.0049 151.992,-55.0049 l 82.002,-30 108.003,59.0039 c 59,33 111.005,56.0019 115.005,52.0019 7,-8 98.989,-227.013 223.989,-533.0127 143,-348.9996 132.012,-327.9951 177.012,-334.9951 25,-5 37.991,-11.9951 35.991,-19.9951 -2,-8 -49.992,-115.0079 -106.992,-238.0078 l -104.004,-223.9893 -119.004,-38.0127 c -65,-21.9999 -117.993,-42.9921 -117.993,-46.9921 0,-5 13.996,-38.9962 30.996,-75.9961 36,-77 248.006,-567.0023 381.006,-877.002 49,-114.9999 126.998,-295.005 172.998,-400.0049 45,-103.9999 110.99,-253.9922 144.99,-331.9922 l 62.007,-143.0127 h 398.994 c 219.001,0 399.009,2.0098 399.009,5.0098 0,2 -26.996,66.002 -60.996,142.002 -65,147.9998 -99,227.9983 -213.999,502.998 -40,95.9999 -130.01,309.9904 -200.01,474.9902 -69,164.9999 -148.997,354.0001 -176.997,420 -28,66 -84.998,203.0099 -127.998,305.0098 -105,247.9998 -301.001,721.991 -600,1449.9902 -246.999,600.9994 -367.008,892.0002 -433.008,1050 -36,85 -118.995,286.0051 -184.995,445.0049 -67,159.9999 -165.997,397.9953 -221.997,529.9951 -56,131.9999 -150,357.01 -210,500.0098 -60,142.9999 -121.999,289.9932 -138.999,327.9932 l -30.996,67.0019 h -433.008 z m 436.011,-1999.9951 c -3,0 -30.004,-87.0079 -59.004,-193.0078 l -52.998,-193.9893 -176.001,-47.0068 c -97,-26 -184.008,-49.998 -193.008,-52.998 -10,-2 -17.988,-7.9971 -17.988,-11.9971 0,-5 270.996,-86.0069 360.996,-107.0068 21,-4 29.002,-14.9971 37.002,-41.9971 49,-184.9998 96.001,-348.0049 101.001,-355.0049 4,-4 27.994,71.0069 53.994,167.0068 26,94.9999 51.001,183.9922 56.001,196.9922 8,21 33.005,30.9991 205.005,78.999 107.999,30 195.996,57 195.996,60 0,3 -84.006,28.005 -186.006,55.0049 -103,28 -192.995,55 -199.995,60 -7,6 -37.006,94.007 -66.006,197.0069 -29,102.9999 -55.989,187.998 -58.989,187.998 z m 936.826,-1240.3418 c -56.766,10.0313 -119.575,-22.418 -145.825,-84.668 -15,-35.9999 -24.004,-45 -44.004,-45 -13,0 -47.004,-5.0009 -74.004,-11.0009 -48,-11 -51.997,-10.9922 -176.997,43.0078 -125,52.9999 -128.995,54.997 -169.995,41.9971 -102,-30 -218.002,-108.9982 -277.002,-187.9981 l -33.003,-42.9932 -240,-6.0058 c -216,-4 -250,-6.9961 -345,-30.9961 -120,-31 -265.009,-96.005 -354.009,-160.0049 -253,-181.9998 -427.997,-537.9986 -521.997,-1057.998 -7,-43 -5.999,-43.0088 41.001,-24.0088 20,9 35.01,11.0097 35.01,5.0097 0,-5 -20,-64.0049 -45,-130.0048 -25,-66 -45,-122.9952 -45,-124.9952 0,-3 15.991,-2.0078 35.991,1.9922 25,5 35,3.001 30,-3.999 -23,-37 -205,-696.9922 -195,-706.9922 3,-3 170.997,-4.0029 371.997,-3.0029 l 366.006,3.0029 -56.001,86.9971 -55.005,87.9931 h -105 -105 l 54.009,60 c 158.999,178.9999 269.003,358.0002 303.003,495 8,32 18.99,133.0001 24.99,225 10,181.9999 19.003,242.0031 48.003,318.003 20,51.9999 73.006,131.9961 111.006,165.9961 25,22.9999 25.991,15.0057 5.991,-68.9942 -8,-32.9999 -15,-101.999 -15,-153.999 v -94.9951 l 52.998,88.9892 c 52,88 197.005,249.0108 205.005,226.0108 5,-14 -5.995,-46.0042 -98.994,-299.0039 -44,-115.9999 -78.999,-216.001 -78.999,-221.001 0,-6 11.992,-6 31.992,0 17,5 32.999,7.0059 33.999,6.0059 2,-1 -11.996,-43.003 -30.996,-93.003 -42,-111.9999 -61.002,-181.0049 -52.002,-190.0048 4,-4 25.003,5.0058 48.003,21.0058 l 41.997,26.9971 -7.002,-32.0069 c -3,-17.9999 -8.993,-97.001 -12.993,-176.0009 -7,-155.9999 -3.01,-166.998 39.99,-112.9981 l 24.009,31.0108 7.998,-58.0078 c 10,-80 48,-230.0021 75,-292.002 l 22.002,-52.002 h 288.999 c 158.999,0 288.999,3.0059 288.999,6.0059 0,4 -24.002,44.0001 -52.002,90 l -52.998,82.9981 -107.007,0.996 h -106.992 l -7.002,36.0059 c -4,20 -4.007,76.9981 -2.007,127.9981 6,103.9998 51.008,253.0001 118.008,390 40,81.9999 238.993,385.0009 252.993,386.0009 4,0 7.002,-18.9971 7.002,-41.997 l 0.996,-43.0079 24.009,30 c 13,16 37.002,52.0098 52.002,80.0098 28,50 27.999,50.9954 33.999,289.9951 5,225.9998 6.996,243.9981 30.996,307.9981 27,71.9999 63.004,129.0029 104.004,168.0029 l 24.99,22.9981 -7.998,-44.004 c -22,-121.9998 -5.997,-250.9913 48.003,-395.9912 l 19.995,-52.998 85.005,38.9941 c 47,22 129.007,55.9961 182.007,75.9961 53,20 99.001,38.0049 101.001,40.0049 2,2 -22.013,25.9942 -53.013,53.9941 -74,69 -118.999,158.0089 -123.999,249.0088 l -2.988,65.9912 19.995,-41.0009 c 32,-62 115,-148.9942 180,-188.9942 78,-46.9999 190.992,-75 301.992,-75 48,0 90.004,3.9942 93.003,8.9942 3,4 -14.002,16.001 -37.002,26.0009 l -41.997,18.003 88.008,11.001 c 75,8.9999 91.999,15.0058 108.999,36.0058 11,13 16.001,25.001 11.001,26.001 -4,2 -29.005,4.9941 -55.005,8.9941 -51,7 -52.998,10.002 -37.998,67.002 l 11.001,37.0019 69.99,3.003 71.001,2.9882 -68.994,75 c -82,91 -123.003,143.0128 -123.003,158.0127 0,7 11.005,11.9971 25.005,11.9971 32,0 32.001,12.003 -3.999,63.0029 -28.999,43 -124.003,136.9922 -138.003,136.9922 -4,1 -19.007,10.0059 -32.007,21.0059 -21,17 -21.99,22 -9.99,30 24,15 36.991,9.9931 50.991,-17.0068 18,-38 32.006,-30.9932 36.006,17.0068 5,59.9999 -17.994,88.9892 -68.994,88.9892 -33,0 -47.009,-6 -69.009,-30 -27,-27.9999 -29.999,-28.998 -93.999,-22.998 -51,5 -67.001,10.0088 -71.001,24.0088 -3,10 -19.991,29.9893 -35.991,43.9892 -16,13.25 -34.252,21.3243 -53.174,24.668 z m 3.164,-1180.664 c -2,-1 -48.99,-25.005 -103.989,-55.0049 -55,-30 -140.005,-66.9981 -190.005,-82.9981 l -90,-28.9892 -103.008,-204.0088 c -109,-215.9998 -165.99,-342 -159.99,-360 2,-6 21.001,4.0019 41.001,22.0019 l 37.002,32.0069 v -131.001 c 0,-71.9999 2.987,-131.001 6.987,-131.001 4,0 22.005,13.9922 40.005,31.9922 29,28 32.999,28.9971 33.999,11.9971 0,-10 15.003,-58.9991 33.003,-108.9991 32,-83.9999 35,-87.995 45,-64.9951 12,29 39.004,65.0039 44.004,59.0039 2,-2 22.992,-40.0088 46.992,-84.0088 23,-43.9999 68.009,-118.9922 99.009,-166.9921 l 56.001,-88.0079 h 293.994 292.998 l -18.003,28.0079 c -10,14.9999 -34.997,55 -56.997,90 l -38.994,61.9921 h -103.008 -102.993 l -40.005,78.003 c -55,104.9999 -87.997,218.9972 -101.997,341.997 -12,104.9999 -9.004,161.01 15.996,335.0098 8,55 18.006,170.9923 21.006,256.9922 3,86.9999 3.992,158.002 1.992,157.002 z m 312.876,-499.7461 c -11.875,2.5 -22.865,-5.7501 -26.865,-26.25 -11,-49 -14.014,-52.9981 -34.014,-52.9981 -55,0 -73.998,-45.001 -22.998,-56.001 48,-10 51.008,-12.0029 58.008,-48.0029 5,-29 11,-36.0059 30,-36.0059 19,0 23.994,5.0079 23.994,28.0079 0,34.9999 8,44.997 45,56.997 43,15 45.003,41.9981 3.003,52.9981 -26,6 -36.004,16.0078 -44.004,43.0078 -7.5,22.5 -20.249,35.7471 -32.124,38.2471 z"
       sodipodi:nodetypes="ccsscccccscccccccsccssccccccccccccccscccscccccsscccsccccssccccsccccsccccccsccssscsccccccccccsssscsccccccccccccsccccscccscccccccccsscccccccccccccsccccccsscccccsccccccccccccsscccccssccccssscccsccsscccccccccccccccccccsscsccsscccs" />
    <path
       id="rect2-0-3"
       style="fill:#ffffff;stroke:none;stroke-width:10.2047"
       d="m 29086.479,9920.0781 -334.599,-805.4443 -97.383,-247.1338 -102.993,-247.002 c -57,-136.9997 -181.998,-435.0033 -277.998,-663.0029 -96,-227.9995 -215.998,-515.9904 -266.997,-639.9902 -51,-123.9998 -122.013,-295.0099 -158.013,-380.0098 -35,-84.9998 -168.997,-410.9957 -296.997,-724.9951 -276,-676.9986 -556,-1352.001 -765,-1845 -29,-68.9998 -114.991,-272.9955 -189.99,-454.9951 -76,-180.9996 -187.002,-447.01 -247.002,-590.0098 -61,-142.9996 -136.003,-322.9904 -168.003,-399.9902 -32,-76.9998 -71.008,-170.0079 -88.008,-208.0078 l -3.354,-7.251 -24.815,-59.7363 403.169,1.9922 405,3.0029 33.003,79.9951 c 18,44 112,274.0005 210,510 97,236.9996 257.997,633.0054 356.997,880.0049 98,247.9995 260.008,647.9956 358.008,889.9951 98,241.9996 195.998,486.9953 217.998,544.9951 59,154.9998 323.997,817.0104 446.997,1115.0098 59,142.9997 138.005,333.9953 175.005,424.9951 37,90.9998 99.995,244.0051 139.995,340.0049 40,95.9998 112.005,272.0002 160.005,390 107,261.9994 119.995,292.999 124.995,288.999 2,-2 52.998,-128.009 112.998,-279.0088 61,-150.9996 142,-348.9953 180,-439.9951 141,-335.9993 360.009,-861.9954 414.009,-994.9951 22,-54.9999 78.995,-188.0012 124.995,-296.001 l 85.005,-197.0068 71.997,-24.9903 c 39,-14 107.992,-39.0049 151.992,-55.0048 l 82.002,-30 108.003,59.0039 c 59,32.9999 111.005,56.0019 115.005,52.0019 7,-8 98.989,-227.0133 223.989,-533.0127 143,-348.9992 132.012,-327.9951 177.012,-334.9951 25,-5 37.991,-11.9951 35.991,-19.9951 -2,-8 -49.992,-115.0081 -106.992,-238.0078 l -104.004,-223.9893 -119.004,-38.0127 c -65,-21.9999 -117.993,-42.9922 -117.993,-46.9922 0,-5 13.996,-38.9962 30.996,-75.9961 36,-76.9999 248.006,-567.0025 381.006,-877.0019 49,-114.9998 126.998,-295.0051 172.998,-400.0049 45,-103.9998 110.99,-253.9923 144.99,-331.9922 l 62.007,-143.0127 h 398.994 c 219.001,0 399.009,2.0098 399.009,5.0098 0,2 -26.996,66.002 -60.996,142.0019 -65,147.9997 -99,227.9987 -213.999,502.9981 -40,95.9998 -130.01,309.9906 -200.01,474.9902 -69,164.9998 -148.997,354.0002 -176.997,420 -28,66 -84.998,203.01 -127.998,305.0098 -105,247.9995 -301.001,721.9917 -600,1449.9902 -246.999,600.9988 -367.008,892.0004 -433.008,1050 -36,84.9999 -118.995,286.0053 -184.995,445.0049 -67,159.9997 -165.997,397.9954 -221.997,529.9951 -56,131.9998 -150,357.0101 -210,500.0098 -60,142.9997 -121.999,289.9932 -138.999,327.9931 l -30.996,67.002 z m 4.029,-3052.5732 c -3,0 -30.004,-87.008 -59.004,-193.0078 l -52.998,-193.9893 -176.001,-47.0068 c -97,-26 -184.008,-49.9981 -193.008,-52.9981 -10,-2 -17.988,-7.997 -17.988,-11.997 0,-5 270.996,-86.007 360.996,-107.0069 21,-4 29.002,-14.9971 37.002,-41.997 49,-184.9997 96.001,-348.0049 101.001,-355.0049 4,-4 27.994,71.007 53.994,167.0068 26,94.9998 51.001,183.9922 56.001,196.9922 8,21 33.005,30.9992 205.005,78.999 107.999,30 195.996,57 195.996,60 0,3 -84.006,28.005 -186.006,55.0049 -103,28 -192.995,55 -199.995,60 -7,6 -37.006,94.007 -66.006,197.0068 -29,102.9998 -55.989,187.9981 -58.989,187.9981 z m 936.826,-1240.3418 c -56.766,10.0313 -119.575,-22.418 -145.825,-84.668 -15,-35.9998 -24.004,-45 -44.004,-45 -13,0 -47.004,-5.001 -74.004,-11.001 -48,-10.9999 -51.997,-10.9921 -176.997,43.0079 -125,52.9998 -128.995,54.9969 -169.995,41.997 -102,-29.9999 -218.002,-108.9982 -277.002,-187.998 l -33.003,-42.9932 -240,-6.0058 c -216,-4 -250,-6.9962 -345,-30.9961 -120,-31 -265.009,-96.0051 -354.009,-160.0049 -253,-181.9996 -427.997,-537.9992 -521.997,-1057.9981 -7,-42.9999 -5.999,-43.0087 41.001,-24.0088 20,9 35.01,11.0098 35.01,5.0098 0,-5 -20,-64.005 -45,-130.0049 -25,-65.9999 -45,-122.9951 -45,-124.9951 0,-3 15.991,-2.0078 35.991,1.9922 25,5 35,3.001 30,-3.999 -23,-37 -205,-696.9922 -195,-706.9922 3,-3 170.997,-4.0029 371.997,-3.0029 l 366.006,3.0029 -56.001,86.9971 -55.005,87.9931 h -105 -105 l 54.009,60 c 158.999,178.9997 269.003,358.0004 303.003,495 8,32 18.99,133.0002 24.99,225 10,181.9997 19.003,242.0031 48.003,318.0029 20,51.9999 73.006,131.9962 111.006,165.9961 25,22.9999 25.991,15.0057 5.991,-68.9941 -8,-32.9999 -15,-101.9991 -15,-153.999 v -94.9951 l 52.998,88.9892 c 52,87.9999 197.005,249.0107 205.005,226.0108 5,-14 -5.995,-46.0045 -98.994,-299.0039 -44,-115.9998 -78.999,-216.001 -78.999,-221.001 0,-6 11.992,-6 31.992,0 17,5 32.999,7.0058 33.999,6.0058 2,-1 -11.996,-43.0029 -30.996,-93.0029 -42,-111.9998 -61.002,-181.005 -52.002,-190.0049 4,-4 25.003,5.0059 48.003,21.0059 l 41.997,26.9971 -7.002,-32.0069 c -3,-17.9999 -8.993,-97.0011 -12.993,-176.001 -7,-155.9997 -3.01,-166.9979 39.99,-112.998 l 24.009,31.0107 7.998,-58.0078 c 10,-79.9999 48,-230.0021 75,-292.0019 l 22.002,-52.002 h 288.999 c 158.999,0 288.999,3.0059 288.999,6.0059 0,4 -24.002,44.0001 -52.002,90 l -52.998,82.998 -107.007,0.9961 h -106.992 l -7.002,36.0059 c -4,20 -4.007,76.9981 -2.007,127.998 6,103.9997 51.008,253.0003 118.008,390 40,81.9998 238.993,385.001 252.993,386.001 4,0 7.002,-18.9972 7.002,-41.9971 l 0.996,-43.0078 24.009,30 c 13,16 37.002,52.0098 52.002,80.0098 28,49.9999 27.999,50.9956 33.999,289.9951 5,225.9996 6.996,243.9981 30.996,307.998 27,71.9999 63.004,129.003 104.004,168.003 l 24.99,22.998 -7.998,-44.0039 c -22,-121.9997 -5.997,-250.9914 48.003,-395.9912 l 19.995,-52.998 85.005,38.9941 c 47,22 129.007,55.9961 182.007,75.9961 53,20 99.001,38.0049 101.001,40.0049 2,2 -22.013,25.9942 -53.013,53.9941 -74,68.9999 -118.999,158.009 -123.999,249.0088 l -2.988,65.9912 19.995,-41.001 c 32,-61.9999 115,-148.9941 180,-188.9941 78,-46.9999 190.992,-75 301.992,-75 48,0 90.004,3.9941 93.003,8.9941 3,4 -14.002,16.0011 -37.002,26.001 l -41.997,18.0029 88.008,11.001 c 75,8.9999 91.999,15.0059 108.999,36.0059 11,13 16.001,25.001 11.001,26.001 -4,2 -29.005,4.9941 -55.005,8.9941 -51,7 -52.998,10.002 -37.998,67.002 l 11.001,37.0019 69.99,3.0029 71.001,2.9883 -68.994,75 c -82,90.9999 -123.003,143.0128 -123.003,158.0127 0,7 11.005,11.9971 25.005,11.9971 32,0 32.001,12.0031 -3.999,63.0029 -28.999,43 -124.003,136.9922 -138.003,136.9922 -4,1 -19.007,10.0059 -32.007,21.0059 -21,16.9999 -21.99,22 -9.99,30 24,14.9999 36.991,9.993 50.991,-17.0069 18,-37.9999 32.006,-30.9931 36.006,17.0069 5,59.9998 -17.994,88.9892 -68.994,88.9892 -33,0 -47.009,-6 -69.009,-30 -27,-27.9999 -29.999,-28.998 -93.999,-22.998 -51,5 -67.001,10.0088 -71.001,24.0088 -3,9.9999 -19.991,29.9893 -35.991,43.9892 -16,13.25 -34.252,21.3243 -53.174,24.668 z m 3.164,-1180.6641 c -2,-1 -48.99,-25.005 -103.989,-55.0049 -55,-29.9999 -140.005,-66.998 -190.005,-82.998 l -90,-28.9893 -103.008,-204.0088 c -109,-215.9995 -165.99,-342 -159.99,-360 2,-5.9999 21.001,4.002 41.001,22.002 l 37.002,32.0068 v -131.0009 c 0,-71.9999 2.987,-131.001 6.987,-131.001 4,0 22.005,13.9922 40.005,31.9922 29,27.9999 32.999,28.997 33.999,11.997 0,-9.9999 15.003,-58.999 33.003,-108.999 32,-83.9998 35,-87.995 45,-64.9951 12,29 39.004,65.0039 44.004,59.0039 2,-2 22.992,-40.0088 46.992,-84.0088 23,-43.9998 68.009,-118.9923 99.009,-166.9922 l 56.001,-88.0078 h 293.994 292.998 l -18.003,28.0078 c -10,14.9999 -34.997,55.0001 -56.997,90 l -38.994,61.9922 h -103.008 -102.993 l -40.005,78.0029 c -55,104.9998 -87.997,218.9974 -101.997,341.9971 -12,104.9998 -9.004,161.0102 15.996,335.0098 8,54.9999 18.006,170.9924 21.006,256.9922 3,86.9998 3.992,158.0019 1.992,157.0019 z m 312.876,-499.7461 c -11.875,2.5 -22.865,-5.7501 -26.865,-26.25 -11,-48.9999 -14.014,-52.998 -34.014,-52.998 -55,0 -73.998,-45.001 -22.998,-56.001 48,-10 51.008,-12.003 58.008,-48.0029 5,-29 11,-36.0059 30,-36.0059 19,0 23.994,5.0079 23.994,28.0078 0,34.9999 8,44.9971 45,56.9971 43,15 45.003,41.9981 3.003,52.998 -26,6 -36.004,16.0079 -44.004,43.0079 -7.5,22.4999 -20.249,35.747 -32.124,38.247 z" />
    <path
       id="rect2-0-3-6"
       style="fill:#ffffff;stroke:none;stroke-width:10.2047"
       d="m 5153.2303,8715.6315 -334.6,-805.4446 -97.383,-247.1337 -102.993,-247.002 c -57,-136.9996 -181.998,-435.0036 -277.998,-663.0029 -96,-227.9993 -215.998,-515.9906 -266.997,-639.9903 -51,-123.9996 -122.013,-295.0099 -158.013,-380.0097 -35,-84.9997 -168.997,-410.9961 -296.997,-724.9951 -275.999,-676.998 -556,-1352.0015 -765,-1845 -29,-68.9998 -114.991,-272.9957 -189.99,-454.9952 -76,-180.9994 -187.002,-447.0101 -247.002,-590.0097 -61,-142.9995 -136.003,-322.9905 -168.003,-399.9903 -32,-76.9997 -71.008,-170.0079 -88.008,-208.0078 l -3.354,-7.251 -24.815,-59.7363 403.169,1.9922 405,3.0029 33.003,79.9952 c 18,43.9999 112,274.0007 210,510 97,236.9993 257.997,633.0056 356.997,880.0048 98,247.9993 260.008,647.9959 358.008,889.9952 98,241.9993 195.998,486.9953 217.998,544.9951 59,154.9996 323.997,817.0106 446.997,1115.0097 59,142.9996 138.005,333.9954 175.005,424.9952 37,90.9997 99.995,244.0051 139.995,340.0048 40,95.9997 112.005,272.0004 160.005,390 107,261.9992 119.995,292.9991 124.995,288.9991 2,-2 52.998,-128.0092 112.998,-279.0088 61,-150.9995 142,-348.9954 180,-439.9951 141,-335.999 360.009,-861.9956 414.009,-994.9952 22,-54.9998 78.995,-188.0012 124.995,-296.0009 l 85.005,-197.0069 71.997,-24.9902 c 39,-14 107.992,-39.005 151.992,-55.0049 l 82.002,-30 108.003,59.0039 c 59,32.9999 111.005,56.002 115.005,52.002 7,-8 98.99,-227.0136 223.989,-533.0127 143,-348.9989 132.012,-327.9952 177.012,-334.9951 25,-5 37.991,-11.9952 35.991,-19.9952 -2,-8 -49.992,-115.0082 -106.992,-238.0078 l -104.004,-223.9892 -119.004,-38.0127 c -65,-21.9999 -117.993,-42.9922 -117.993,-46.9922 0,-5 13.996,-38.9962 30.996,-75.9961 36,-76.9998 248.006,-567.0029 381.006,-877.002 49,-114.9996 126.998,-295.0051 172.998,-400.0048 45,-103.9997 110.99,-253.9924 144.99,-331.9922 l 62.007,-143.0127 h 398.994 c 219.001,0 399.009,2.0097 399.009,5.0097 0,2 -26.996,66.0022 -60.996,142.002 -65,147.9995 -99,227.9989 -213.999,502.998 -40,95.9997 -130.01,309.9908 -200.01,474.9903 -69,164.9996 -148.997,354.0002 -176.997,420 -28,65.9999 -84.998,203.01 -127.998,305.0097 -105,247.9993 -301.001,721.9925 -600,1449.9903 -246.999,600.9982 -367.008,892.0005 -433.008,1050 -36,84.9998 -118.995,286.0054 -184.995,445.0049 -67,159.9995 -165.997,397.9955 -221.997,529.9951 -56,131.9996 -150,357.0102 -210,500.0097 -60,142.9996 -121.999,289.9933 -138.999,327.9932 l -30.996,67.002 z m 4.028,-3052.5735 c -3,0 -30.004,-87.0081 -59.004,-193.0078 l -52.998,-193.9892 -176.001,-47.0069 c -97,-25.9999 -184.008,-49.998 -193.008,-52.998 -10,-2 -17.988,-7.9971 -17.988,-11.9971 0,-5 270.996,-86.0069 360.996,-107.0068 21,-4 29.002,-14.9972 37.002,-41.9971 49,-184.9995 96.001,-348.0049 101.001,-355.0049 4,-4 27.994,71.0072 53.994,167.0069 26,94.9997 51.001,183.9922 56.001,196.9921 8,21 33.005,30.9993 205.005,78.9991 107.999,29.9999 195.996,57 195.996,60 0,3 -84.006,28.005 -186.006,55.0049 -103,27.9999 -192.995,55 -199.995,60 -7,6 -37.006,94.0071 -66.006,197.0068 -29,102.9997 -55.989,187.998 -58.989,187.998 z m 936.826,-1240.3418 c -56.766,10.0313 -119.575,-22.418 -145.825,-84.6679 -15,-35.9998 -24.004,-45 -44.004,-45 -13,0 -47.004,-5.001 -74.004,-11.001 -48,-10.9999 -51.997,-10.9921 -176.997,43.0078 -125,52.9998 -128.995,54.997 -169.995,41.9971 -102,-29.9999 -218.002,-108.9983 -277.002,-187.9981 l -33.003,-42.9931 -240,-6.0059 c -216,-4 -250,-6.9962 -345,-30.9961 -120,-31 -265.009,-96.0051 -354.009,-160.0049 -252.999,-181.9994 -427.997,-537.9996 -521.997,-1057.998 -7,-42.9999 -5.999,-43.0087 41.001,-24.0088 20,9 35.01,11.0098 35.01,5.0098 0,-5 -20,-64.0051 -45,-130.0049 -25,-65.9999 -45,-122.9951 -45,-124.9951 0,-3 15.991,-2.0078 35.991,1.9921 25,5 35,3.001 30,-3.999 -23,-36.9999 -205,-696.9922 -195,-706.9922 3,-3 170.998,-4.0029 371.997,-3.0029 l 366.006,3.0029 -56.001,86.9971 -55.005,87.9932 h -105 -105 l 54.009,60 c 158.999,178.9995 269.003,358.0005 303.003,495 8,31.9999 18.99,133.0003 24.99,225 10,181.9995 19.003,242.0032 48.003,318.0029 20,51.9999 73.006,131.9962 111.006,165.9961 25,22.9999 25.991,15.0056 5.991,-68.9941 -8,-32.9999 -15,-101.9992 -15,-153.9991 v -94.9951 l 52.998,88.9893 c 52,87.9998 197.005,249.0106 205.005,226.0107 5,-14 -5.995,-46.0047 -98.994,-299.0039 -44,-115.9997 -78.999,-216.001 -78.999,-221.001 0,-6 11.992,-6 31.992,0 17,5 32.999,7.0059 33.999,6.0059 2,-1 -11.996,-43.003 -30.996,-93.0029 -42,-111.9997 -61.002,-181.005 -52.002,-190.0049 4,-4 25.003,5.0059 48.003,21.0058 l 41.997,26.9971 -7.002,-32.0068 c -3,-17.9999 -8.993,-97.0012 -12.993,-176.001 -7,-155.9995 -3.01,-166.9979 39.99,-112.9981 l 24.009,31.0108 7.998,-58.0078 c 10,-79.9998 48,-230.0022 75,-292.002 l 22.002,-52.0019 h 288.999 c 158.999,0 288.999,3.0058 288.999,6.0058 0,4 -24.002,44.0002 -52.002,90 l -52.998,82.9981 -107.007,0.9961 h -106.992 l -7.002,36.0058 c -4,20 -4.007,76.9982 -2.007,127.9981 6,103.9996 51.008,253.0004 118.008,390 40,81.9997 238.993,385.001 252.993,386.001 4,0 7.002,-18.9972 7.002,-41.9971 l 0.996,-43.0078 24.009,30 c 13,16 37.002,52.0098 52.002,80.0097 28,49.9999 27.999,50.9959 33.999,289.9952 5,225.9993 6.996,243.9982 30.996,307.998 27,71.9998 63.004,129.003 104.004,168.0029 l 24.99,22.9981 -7.998,-44.0039 c -22,-121.9996 -5.997,-250.9916 48.003,-395.9912 l 19.995,-52.9981 85.005,38.9942 c 47,21.9999 129.007,55.9961 182.007,75.996 53,20 99.001,38.0049 101.001,40.0049 2,2 -22.013,25.9943 -53.013,53.9942 -74,68.9998 -118.999,158.0091 -123.999,249.0088 l -2.988,65.9912 19.995,-41.001 c 32,-61.9998 115,-148.9942 180,-188.9941 78,-46.9999 190.993,-75 301.992,-75 48,0 90.004,3.9941 93.003,8.9941 3,4 -14.002,16.0011 -37.002,26.001 l -41.997,18.0029 88.008,11.001 c 75,8.9999 91.999,15.0059 108.999,36.0058 11,13 16.001,25.001 11.001,26.001 -4,2 -29.005,4.9942 -55.005,8.9942 -51,6.9999 -52.998,10.002 -37.998,67.0019 l 11.001,37.002 69.99,3.0029 71.001,2.9883 -68.994,75 c -82,90.9998 -123.003,143.0128 -123.003,158.0127 0,7 11.005,11.997 25.005,11.997 32,0 32.001,12.0032 -3.999,63.003 -28.999,42.9999 -124.003,136.9922 -138.003,136.9922 -4,1 -19.007,10.0058 -32.007,21.0058 -21,16.9999 -21.99,22 -9.99,30 24,14.9999 36.991,9.9931 50.991,-17.0068 18,-37.9999 32.006,-30.9931 36.006,17.0068 5,59.9998 -17.994,88.9893 -68.994,88.9893 -33,0 -47.009,-6.0001 -69.009,-30 -27,-27.9999 -29.999,-28.9981 -93.999,-22.9981 -51,5 -67.001,10.0088 -71.001,24.0088 -3,9.9999 -19.991,29.9894 -35.991,43.9893 -16,13.25 -34.252,21.3242 -53.174,24.6679 z m 3.164,-1180.664 c -2,-1 -48.99,-25.005 -103.989,-55.0049 -55,-29.9999 -140.005,-66.9981 -190.005,-82.9981 l -90,-28.9892 -103.008,-204.0088 c -109,-215.9993 -165.99,-342 -159.99,-360 2,-5.9999 21.001,4.002 41.001,22.002 l 37.002,32.0068 v -131.001 c 0,-71.9998 2.987,-131.001 6.987,-131.001 4,0 22.005,13.9922 40.005,31.9922 29,27.9999 32.999,28.9971 33.999,11.9971 0,-9.9999 15.003,-58.9991 33.003,-108.999 32,-83.9997 35,-87.995 45,-64.9951 12,28.9999 39.004,65.0039 44.004,59.0039 2,-2 22.992,-40.0089 46.992,-84.0088 23,-43.9998 68.009,-118.9924 99.009,-166.9922 l 56.001,-88.0078 h 293.994 292.998 l -18.003,28.0078 c -10,14.9999 -34.997,55.0001 -56.997,90 l -38.994,61.9922 h -103.008 -102.993 l -40.005,78.0029 c -55,104.9997 -87.997,218.9975 -101.997,341.9971 -12,104.9997 -9.004,161.0103 15.996,335.0097 8,54.9999 18.006,170.9925 21.006,256.9922 3,86.9997 3.992,158.002 1.992,157.002 z" />
    <path
       id="rect2-0-3-6-2"
       style="fill:#ffffff;stroke:none;stroke-width:10.2047"
       d="m 14811.153,-4197.5005 -334.6,-805.4446 -97.383,-247.1337 -102.993,-247.002 c -57,-136.9996 -181.998,-435.0036 -277.998,-663.0029 -96,-227.9993 -215.998,-515.9906 -266.997,-639.9903 -51,-123.9996 -122.013,-295.0099 -158.013,-380.0097 -35,-84.9997 -168.997,-410.9961 -296.997,-724.9951 -275.999,-676.998 -556,-1352.0015 -765,-1845 -29,-68.9998 -114.991,-272.9962 -189.99,-454.9952 -76,-180.999 -187.002,-447.01 -247.002,-590.01 -61,-142.999 -136.003,-322.99 -168.003,-399.99 -32,-77 -88.008,-208.008 -88.008,-208.008 l -3.354,-7.251 -24.815,-59.736 1003.423,482.283 c 51.282,121.046 249.031,604.212 404.746,992.712 98,247.9993 260.008,647.9959 358.008,889.9952 98,241.9993 195.998,486.9953 217.998,544.9951 59,154.9996 323.997,817.0106 446.997,1115.0097 59,142.9996 138.005,333.9954 175.005,424.9952 37,90.9997 99.995,244.0051 139.995,340.0048 40,95.9997 112.005,272.0004 160.005,390 107,261.9992 119.995,292.9991 124.995,288.9991 2,-2 52.998,-128.0092 112.998,-279.0088 61,-150.9995 142,-348.9954 180,-439.9951 141,-335.999 360.009,-861.9956 414.009,-994.9952 22,-54.9998 78.995,-188.0012 124.995,-296.0009 l 85.005,-197.0069 71.997,-24.9902 c 39,-14 107.992,-39.005 151.992,-55.0049 l 82.002,-30 108.003,59.0039 c 59,32.9999 111.005,56.002 115.005,52.002 7,-8 98.99,-227.0136 223.989,-533.0127 143,-348.9989 132.012,-327.9952 177.012,-334.9951 25,-5 37.991,-11.9952 35.991,-19.9952 -2,-8 -49.992,-115.0082 -106.992,-238.0078 l -104.004,-223.9892 -119.004,-38.0127 c -65,-21.9999 -117.993,-42.9922 -117.993,-46.9922 0,-5 13.996,-38.9962 30.996,-75.9961 36,-76.9998 248.006,-567.003 381.006,-877.002 49,-115 126.998,-295.005 172.998,-400.005 45,-104 110.99,-253.992 144.99,-331.992 l 62.007,-143.013 h 398.994 c 219.001,0 399.009,2.01 399.009,5.01 0,2 -26.996,66.002 -60.996,142.002 -65,147.999 -99,227.999 -213.999,502.998 -40,96 -130.01,309.991 -200.01,474.99 -69,165 -148.997,354.0005 -176.997,420.0003 -28,65.9999 -84.998,203.01 -127.998,305.0097 -105,247.9993 -301.001,721.9925 -600,1449.9903 -246.999,600.9982 -367.008,892.0005 -433.008,1050 -36,84.9998 -118.995,286.0054 -184.995,445.0049 -67,159.9995 -165.997,397.9955 -221.997,529.9951 -56,131.9996 -150,357.0102 -210,500.0097 -60,142.9996 -121.999,289.9933 -138.999,327.9932 l -30.996,67.002 z m 4.028,-3052.5735 c -3,0 -30.004,-87.0081 -59.004,-193.0078 l -52.998,-193.9892 -176.001,-47.0069 c -97,-25.9999 -184.008,-49.998 -193.008,-52.998 -10,-2 -17.988,-7.9971 -17.988,-11.9971 0,-5 270.996,-86.0069 360.996,-107.0068 21,-4 29.002,-14.9972 37.002,-41.9971 49,-184.9995 96.001,-348.0049 101.001,-355.0049 4,-4 27.994,71.0072 53.994,167.0069 26,94.9997 51.001,183.9922 56.001,196.9921 8,21 33.005,30.9993 205.005,78.9991 107.999,29.9999 195.996,57 195.996,60 0,3 -84.006,28.005 -186.006,55.0049 -103,27.9999 -192.995,55 -199.995,60 -7,6 -37.006,94.0071 -66.006,197.0068 -29,102.9997 -55.989,187.998 -58.989,187.998 z m 936.826,-1240.3418 c -56.766,10.0313 -119.575,-22.418 -145.825,-84.6679 -15,-35.9998 -24.004,-45 -44.004,-45 -13,0 -47.004,-5.001 -74.004,-11.001 -48,-10.9999 -51.997,-10.9921 -176.997,43.0078 -125,52.9998 -128.995,54.997 -169.995,41.9971 -102,-29.9999 -218.002,-108.9983 -277.002,-187.9981 l -33.003,-42.9931 -240,-6.0059 c -216,-4 -250,-6.9962 -345,-30.9961 -120,-31 -265.009,-96.0051 -354.009,-160.0049 -252.999,-181.9994 -427.997,-537.9996 -521.997,-1057.9981 -7,-43 -5.999,-43.009 41.001,-24.009 20,9 35.01,11.01 35.01,5.01 0,-5 -20,-64.005 -45,-130.005 -25,-66 -45,-122.995 -45,-124.995 0,-3 15.991,-2.008 35.991,1.992 25,5 35,3.001 30,-3.999 -23,-37 -205,-696.992 -195,-706.992 3,-3 170.998,-4.003 371.997,-3.003 l 366.006,3.003 -56.001,86.997 -55.005,87.993 h -105 -105 l 54.009,60 c 158.999,179 269.003,358.001 303.003,495 8,32 18.99,133.001 24.99,225 10,181.9998 19.003,242.0035 48.003,318.0032 20,51.9999 73.006,131.9962 111.006,165.9961 25,22.9999 25.991,15.0056 5.991,-68.9941 -8,-32.9999 -15,-101.9992 -15,-153.9991 v -94.9951 l 52.998,88.9893 c 52,87.9998 197.005,249.0106 205.005,226.0107 5,-14 -5.995,-46.0047 -98.994,-299.0039 -44,-115.9997 -78.999,-216.0011 -78.999,-221.0011 0,-6 11.992,-6 31.992,0 17,5 32.999,7.006 33.999,6.006 2,-1 -11.996,-43.003 -30.996,-93.003 -42,-112 -61.002,-181.005 -52.002,-190.005 4,-4 25.003,5.006 48.003,21.006 l 41.997,26.997 -7.002,-32.007 c -3,-18 -8.993,-97.001 -12.993,-176.001 -7,-155.999 -3.01,-166.998 39.99,-112.998 l 24.009,31.011 7.998,-58.008 c 10,-80 48,-230.002 75,-292.002 l 22.002,-52.002 h 288.999 c 158.999,0 288.999,3.006 288.999,6.006 0,4 -24.002,44 -52.002,90 l -52.998,82.998 -107.007,0.996 h -106.992 l -7.002,36.006 c -4,20 -4.007,76.998 -2.007,127.998 6,104 51.008,253.001 118.008,390 40,82 238.993,385.0012 252.993,386.0012 4,0 7.002,-18.9972 7.002,-41.9971 l 0.996,-43.0078 24.009,30 c 13,16 37.002,52.0098 52.002,80.0097 28,49.9999 27.999,50.9959 33.999,289.9952 5,225.9993 6.996,243.9982 30.996,307.998 27,71.9998 63.004,129.003 104.004,168.0029 l 24.99,22.9981 -7.998,-44.0039 c -22,-121.9996 -5.997,-250.9916 48.003,-395.9912 l 19.995,-52.9981 85.005,38.9942 c 47,21.9999 129.007,55.9961 182.007,75.996 53,20 99.001,38.0049 101.001,40.0049 2,2 -22.013,25.9943 -53.013,53.9942 -74,68.9998 -118.999,158.0091 -123.999,249.0088 l -2.988,65.9912 19.995,-41.001 c 32,-61.9998 115,-148.9942 180,-188.9941 78,-46.9999 190.993,-75 301.992,-75 48,0 90.004,3.9941 93.003,8.9941 3,4 -14.002,16.0011 -37.002,26.001 l -41.997,18.0029 88.008,11.001 c 75,8.9999 91.999,15.0059 108.999,36.0058 11,13 16.001,25.001 11.001,26.001 -4,2 -29.005,4.9942 -55.005,8.9942 -51,6.9999 -52.998,10.002 -37.998,67.0019 l 11.001,37.002 69.99,3.0029 71.001,2.9883 -68.994,75 c -82,90.9998 -123.003,143.0128 -123.003,158.0127 0,7 11.005,11.997 25.005,11.997 32,0 32.001,12.0032 -3.999,63.003 -28.999,42.9999 -124.003,136.9922 -138.003,136.9922 -4,1 -19.007,10.0058 -32.007,21.0058 -21,16.9999 -21.99,22 -9.99,30 24,14.9999 36.991,9.9931 50.991,-17.0068 18,-37.9999 32.006,-30.9931 36.006,17.0068 5,59.9998 -17.994,88.9893 -68.994,88.9893 -33,0 -47.009,-6.0001 -69.009,-30 -27,-27.9999 -29.999,-28.9981 -93.999,-22.9981 -51,5 -67.001,10.0088 -71.001,24.0088 -3,9.9999 -19.991,29.9894 -35.991,43.9893 -16,13.25 -34.252,21.3242 -53.174,24.6679 z m 3.164,-1180.664 c -2,-1 -48.99,-25.005 -103.989,-55.0049 -55,-29.9999 -140.005,-66.9981 -190.005,-82.9981 l -90,-28.9892 -103.008,-204.009 c -109,-215.999 -165.99,-342 -159.99,-360 2,-6 21.001,4.002 41.001,22.002 l 37.002,32.007 v -131.001 c 0,-72 2.987,-131.001 6.987,-131.001 4,0 22.005,13.992 40.005,31.992 29,28 32.999,28.997 33.999,11.997 0,-10 15.003,-58.999 33.003,-108.999 32,-83.999 35,-87.995 45,-64.995 12,29 39.004,65.004 44.004,59.004 2,-2 22.992,-40.009 46.992,-84.009 23,-44 68.009,-118.992 99.009,-166.992 l 56.001,-88.008 h 293.994 292.998 l -18.003,28.008 c -10,15 -34.997,55 -56.997,90 l -38.994,61.992 h -103.008 -102.993 l -40.005,78.003 c -55,105 -87.997,218.998 -101.997,341.997 -12,105 -9.004,161.011 15.996,335.01 8,55 18.006,170.9925 21.006,256.9922 3,86.9997 3.992,158.002 1.992,157.002 z"
       sodipodi:nodetypes="ccccsscccccscccccsccssccccccccccccccscccscccccsscccsccccsscccsccccsccccccsccssscsccccccccccsssscsccccccccccccsccccscccscccccccccsscccccccccccccsccccccsscccccsccccccccccccsscccccssccccssscccsccsscccccccccccccccccccs" />
    <path
       id="rect2-0-3-4-7-5"
       style="fill:#ffffff;stroke:none;stroke-width:10.2047"
       d="m 2891.9303,4967.3306 c -1.315,0 -13.151,-38.1352 -25.861,-84.5944 l -23.229,-85.0245 -77.14,-20.6028 c -42.515,-11.3957 -80.65,-21.9138 -84.595,-23.2288 -4.382,-0.8765 -7.884,-3.5051 -7.884,-5.2583 0,-2.1914 118.776,-37.6963 158.223,-46.9005 9.204,-1.7532 12.711,-6.5732 16.218,-18.4071 21.476,-81.0843 42.076,-152.5288 44.268,-155.5969 1.753,-1.7531 12.269,31.1222 23.665,73.1984 11.396,41.6378 22.353,80.6428 24.546,86.3407 3.505,9.204 14.465,13.5867 89.852,34.6248 47.335,13.1488 85.904,24.9827 85.904,26.2977 0,1.3149 -36.82,12.2745 -81.526,24.1083 -45.144,12.2722 -84.589,24.1063 -87.656,26.2978 -3.069,2.6297 -16.22,41.2028 -28.931,86.347 -12.71,45.1443 -24.539,82.3986 -25.854,82.3986 z" />
    <path
       id="rect2-0-3-4"
       style="fill:#ffffff;stroke:none;stroke-width:10.2047"
       d="m 6799.9103,7828.2519 c -5.141,0 -51.417,-149.1039 -101.114,-330.7531 l -90.821,-332.4347 -301.609,-80.5545 c -166.227,-44.5556 -315.33,-85.6805 -330.753,-90.8216 -17.137,-3.4273 -30.826,-13.7044 -30.826,-20.5591 0,-8.5684 464.399,-147.388 618.63,-183.375 35.988,-6.8548 49.7,-25.7004 63.41,-71.9695 83.97,-317.0293 164.514,-596.3678 173.083,-608.3635 6.855,-6.8546 47.972,121.6833 92.528,286.1958 44.556,162.7987 87.399,315.3031 95.968,337.5809 13.709,35.987 56.56,53.1226 351.312,135.3787 185.075,51.4103 335.874,97.6795 335.874,102.8206 0,5.141 -143.959,47.9915 -318.754,94.2606 -176.509,47.9828 -330.731,94.2522 -342.727,102.8206 -11.996,10.282 -63.417,161.0977 -113.113,337.6059 -49.697,176.5082 -95.947,322.1679 -101.088,322.1679 z" />
    <path
       id="rect2-0-3-4-7"
       style="fill:#ffffff;stroke:none;stroke-width:10.2047"
       d="m 6537.3503,2831.4802 c -1.315,0 -13.151,-38.1352 -25.861,-84.5944 l -23.229,-85.0245 -77.14,-20.6028 c -42.515,-11.3957 -80.65,-21.9138 -84.595,-23.2288 -4.382,-0.8765 -7.884,-3.5051 -7.884,-5.2583 0,-2.1914 118.776,-37.6963 158.223,-46.9005 9.204,-1.7532 12.711,-6.5732 16.218,-18.4071 21.476,-81.0843 42.076,-152.5288 44.268,-155.5969 1.753,-1.7531 12.269,31.1222 23.665,73.1984 11.396,41.6378 22.353,80.6428 24.546,86.3407 3.505,9.204 14.465,13.5867 89.852,34.6248 47.335,13.1488 85.904,24.9827 85.904,26.2977 0,1.3149 -36.82,12.2745 -81.526,24.1083 -45.144,12.2722 -84.589,24.1063 -87.656,26.2978 -3.069,2.6297 -16.22,41.2028 -28.931,86.347 -12.71,45.1443 -24.539,82.3986 -25.854,82.3986 z" />
    <path
       id="rect2-0-3-4-7-7"
       style="fill:#ffffff;stroke:none;stroke-width:10.2047"
       d="m 4519.4303,4674.8306 c -1.315,0 -13.151,-38.1352 -25.861,-84.5944 l -23.229,-85.0245 -77.14,-20.6028 c -42.515,-11.3957 -80.65,-21.9138 -84.595,-23.2288 -4.382,-0.8765 -7.884,-3.5051 -7.884,-5.2583 0,-2.1914 118.776,-37.6963 158.223,-46.9005 9.204,-1.7532 12.711,-6.5732 16.218,-18.4071 21.476,-81.0843 42.076,-152.5288 44.268,-155.5969 1.753,-1.7531 12.269,31.1222 23.665,73.1984 11.396,41.6378 22.353,80.6428 24.546,86.3407 3.505,9.204 14.465,13.5867 89.852,34.6248 47.335,13.1488 85.904,24.9827 85.904,26.2977 0,1.3149 -36.82,12.2745 -81.526,24.1083 -45.144,12.2722 -84.589,24.1063 -87.656,26.2978 -3.069,2.6297 -16.22,41.2028 -28.931,86.347 -12.71,45.1443 -24.539,82.3986 -25.854,82.3986 z" />
    <path
       id="rect2-0-3-4-7-9"
       style="fill:#ffffff;stroke:none;stroke-width:10.2047"
       d="m 3716.9303,7802.3306 c -1.315,0 -13.151,-38.1352 -25.861,-84.5944 l -23.229,-85.0245 -77.14,-20.6028 c -42.515,-11.3957 -80.65,-21.9138 -84.595,-23.2288 -4.382,-0.8765 -7.884,-3.5051 -7.884,-5.2583 0,-2.1914 118.776,-37.6963 158.223,-46.9005 9.204,-1.7532 12.711,-6.5732 16.218,-18.4071 21.476,-81.0843 42.076,-152.5288 44.268,-155.5969 1.753,-1.7531 12.269,31.1222 23.665,73.1984 11.396,41.6378 22.353,80.6428 24.546,86.3407 3.505,9.204 14.465,13.5867 89.852,34.6248 47.335,13.1488 85.904,24.9827 85.904,26.2977 0,1.3149 -36.82,12.2745 -81.526,24.1083 -45.144,12.2722 -84.589,24.1063 -87.656,26.2978 -3.069,2.6297 -16.22,41.2028 -28.931,86.347 -12.71,45.1443 -24.539,82.3986 -25.854,82.3986 z" />
    <path
       id="rect2-0-3-4-7-9-9"
       style="fill:#ffffff;stroke:none;stroke-width:10.2047"
       d="m 7531.209,4705.0003 c -1.315,0 -13.151,-38.1352 -25.861,-84.5944 l -23.229,-85.0245 -77.14,-20.6028 c -42.515,-11.3957 -80.65,-21.9138 -84.595,-23.2288 -4.382,-0.8765 -7.884,-3.5051 -7.884,-5.2583 0,-2.1914 118.776,-37.6963 158.223,-46.9005 9.204,-1.7532 12.711,-6.5732 16.218,-18.4071 21.476,-81.0843 42.076,-152.5288 44.268,-155.5969 1.753,-1.7531 12.269,31.1222 23.665,73.1984 11.396,41.6378 22.353,80.6428 24.546,86.3407 3.505,9.204 14.465,13.5867 89.852,34.6248 47.335,13.1488 85.904,24.9827 85.904,26.2977 0,1.3149 -36.82,12.2745 -81.526,24.1083 -45.144,12.2722 -84.589,24.1063 -87.656,26.2978 -3.069,2.6297 -16.22,41.2028 -28.931,86.347 -12.71,45.1443 -24.539,82.3986 -25.854,82.3986 z" />
  </g>
</svg>
